<svg xmlns="http://www.w3.org/2000/svg" viewBox="0 0 333.84 61.92"><defs><style>.cls-1{font-size:24px;font-family:ACaslonPro-Bold, Adobe Caslon Pro;font-weight:700;letter-spacing:0.1em;}.cls-1,.cls-17{fill:#b9c8c3;}.cls-2{letter-spacing:0.07em;}.cls-3{letter-spacing:0.08em;}.cls-4{letter-spacing:0.1em;}.cls-5{letter-spacing:0.07em;}.cls-6{letter-spacing:0.11em;}.cls-7{font-size:11px;fill:#938679;font-family:ACaslonPro-Regular, Adobe Caslon Pro;letter-spacing:0.16em;}.cls-8{letter-spacing:0.27em;}.cls-9{letter-spacing:0.26em;}.cls-10{letter-spacing:0.23em;}.cls-11{letter-spacing:0.27em;}.cls-12{letter-spacing:0.28em;}.cls-13{letter-spacing:0.26em;}.cls-14{letter-spacing:0.34em;}.cls-15{letter-spacing:0.14em;}.cls-16{letter-spacing:0.2em;}.cls-18{fill:#978579;}.cls-19{fill:#fff;}</style></defs><g id="Réteg_2" data-name="Réteg 2"><g id="vektor"><text class="cls-1" transform="translate(61.98 33.41) scale(0.99 1.13)">CSŐ<tspan class="cls-2" x="59.62" y="0">D</tspan><tspan x="81.53" y="0">V</tspan><tspan class="cls-3" x="100.22" y="0">É</tspan><tspan class="cls-4" x="118.87" y="0">D</tspan><tspan class="cls-3" x="141.38" y="0">E</tspan><tspan class="cls-5" x="160.03" y="0">L</tspan><tspan class="cls-3" x="177.55" y="0">E</tspan><tspan x="196.2" y="0">M.</tspan><tspan class="cls-6" x="231.33" y="0">H</tspan><tspan x="254.76" y="0">U</tspan></text><text class="cls-7" transform="translate(129.07 46.75)">T<tspan class="cls-8" x="9.48" y="0">A</tspan><tspan class="cls-9" x="20.63" y="0">N</tspan><tspan class="cls-10" x="32.23" y="0">Á</tspan><tspan class="cls-11" x="42.91" y="0">CSA</tspan><tspan class="cls-12" x="74.23" y="0">D</tspan><tspan class="cls-8" x="86.25" y="0">Ó </tspan><tspan class="cls-13" x="104.02" y="0">K</tspan><tspan class="cls-14" x="114.71" y="0">F</tspan><tspan class="cls-15" x="125.03" y="0">T</tspan><tspan class="cls-16" x="134.34" y="0">.</tspan></text><path class="cls-17" d="M28.13,7.91s3.49.71,11.07,2.66c7.15,1.84,9.66,2.58,9.66,2.58S50,20.38,46.8,33.74C44.18,44.52,35.58,51.44,28.13,54c-7.45-2.57-16-9.49-18.67-20.27C6.22,20.38,7.4,13.15,7.4,13.15s2.51-.74,9.66-2.58C24.64,8.62,28.13,7.91,28.13,7.91Z"/><path class="cls-18" d="M56,7s-3.37-1-13-3.47C32.82.94,28.13,0,28.13,0S23.44.94,13.26,3.57C3.65,6.05.28,7,.28,7S-1.3,16.75,3.06,34.69C6.58,49.17,18.12,58.47,28.13,61.92c10-3.45,21.55-12.75,25.07-27.23C57.57,16.75,56,7,56,7Zm-6,27.16c-3.06,12.6-13.1,20.69-21.81,23.69C19.42,54.89,9.39,46.8,6.32,34.2,2.53,18.6,3.91,10.15,3.91,10.15s2.93-.86,11.29-3C24.05,4.86,28.13,4,28.13,4s4.08.83,12.93,3.11c8.36,2.15,11.29,3,11.29,3S53.73,18.6,49.94,34.2Z"/><polygon class="cls-19" points="43.73 25.69 32.49 25.69 32.49 14.45 24.4 14.45 24.4 25.69 13.15 25.69 13.15 33.78 24.4 33.78 24.4 45.03 32.49 45.03 32.49 33.78 43.73 33.78 43.73 25.69"/></g></g></svg>